<?xml version="1.0" encoding="utf-8" standalone="no"?>
<!DOCTYPE svg PUBLIC "-//W3C//DTD SVG 1.1//EN"
  "http://www.w3.org/Graphics/SVG/1.1/DTD/svg11.dtd">
<!-- Created with matplotlib (https://matplotlib.org/) -->
<svg height="288pt" version="1.1" viewBox="0 0 720 288" width="720pt" xmlns="http://www.w3.org/2000/svg" xmlns:xlink="http://www.w3.org/1999/xlink">
 <metadata>
  <rdf:RDF xmlns:cc="http://creativecommons.org/ns#" xmlns:dc="http://purl.org/dc/elements/1.1/" xmlns:rdf="http://www.w3.org/1999/02/22-rdf-syntax-ns#">
   <cc:Work>
    <dc:type rdf:resource="http://purl.org/dc/dcmitype/StillImage"/>
    <dc:date>2022-01-29T00:39:57.748167</dc:date>
    <dc:format>image/svg+xml</dc:format>
    <dc:creator>
     <cc:Agent>
      <dc:title>Matplotlib v3.3.2, https://matplotlib.org/</dc:title>
     </cc:Agent>
    </dc:creator>
   </cc:Work>
  </rdf:RDF>
 </metadata>
 <defs>
  <style type="text/css">*{stroke-linecap:butt;stroke-linejoin:round;}</style>
 </defs>
 <g id="figure_1">
  <g id="patch_1">
   <path d="M 0 288 
L 720 288 
L 720 0 
L 0 0 
z
" style="fill:none;"/>
  </g>
  <g id="axes_1">
   <g id="patch_2">
    <path d="M 81.245 219.38 
L 352.44 219.38 
L 352.44 22.12 
L 81.245 22.12 
z
" style="fill:#ffffff;"/>
   </g>
   <g id="matplotlib.axis_1">
    <g id="xtick_1">
     <g id="line2d_1">
      <defs>
       <path d="M 0 0 
L 0 -3.5 
" id="m5707178931" style="stroke:#000000;stroke-width:0.8;"/>
      </defs>
      <g>
       <use style="stroke:#000000;stroke-width:0.8;" x="93.572045" xlink:href="#m5707178931" y="219.38"/>
      </g>
     </g>
     <g id="line2d_2">
      <defs>
       <path d="M 0 0 
L 0 3.5 
" id="m7251d58b65" style="stroke:#000000;stroke-width:0.8;"/>
      </defs>
      <g>
       <use style="stroke:#000000;stroke-width:0.8;" x="93.572045" xlink:href="#m7251d58b65" y="22.12"/>
      </g>
     </g>
     <g id="text_1">
      <!-- 0 -->
      <g transform="translate(87.845795 236.557187)scale(0.18 -0.18)">
       <defs>
        <path d="M 31.78125 66.40625 
Q 24.171875 66.40625 20.328125 58.90625 
Q 16.5 51.421875 16.5 36.375 
Q 16.5 21.390625 20.328125 13.890625 
Q 24.171875 6.390625 31.78125 6.390625 
Q 39.453125 6.390625 43.28125 13.890625 
Q 47.125 21.390625 47.125 36.375 
Q 47.125 51.421875 43.28125 58.90625 
Q 39.453125 66.40625 31.78125 66.40625 
z
M 31.78125 74.21875 
Q 44.046875 74.21875 50.515625 64.515625 
Q 56.984375 54.828125 56.984375 36.375 
Q 56.984375 17.96875 50.515625 8.265625 
Q 44.046875 -1.421875 31.78125 -1.421875 
Q 19.53125 -1.421875 13.0625 8.265625 
Q 6.59375 17.96875 6.59375 36.375 
Q 6.59375 54.828125 13.0625 64.515625 
Q 19.53125 74.21875 31.78125 74.21875 
z
" id="DejaVuSans-48"/>
       </defs>
       <use xlink:href="#DejaVuSans-48"/>
      </g>
     </g>
    </g>
    <g id="xtick_2">
     <g id="line2d_3">
      <g>
       <use style="stroke:#000000;stroke-width:0.8;" x="155.207273" xlink:href="#m5707178931" y="219.38"/>
      </g>
     </g>
     <g id="line2d_4">
      <g>
       <use style="stroke:#000000;stroke-width:0.8;" x="155.207273" xlink:href="#m7251d58b65" y="22.12"/>
      </g>
     </g>
     <g id="text_2">
      <!-- 5 -->
      <g transform="translate(149.481023 236.557187)scale(0.18 -0.18)">
       <defs>
        <path d="M 10.796875 72.90625 
L 49.515625 72.90625 
L 49.515625 64.59375 
L 19.828125 64.59375 
L 19.828125 46.734375 
Q 21.96875 47.46875 24.109375 47.828125 
Q 26.265625 48.1875 28.421875 48.1875 
Q 40.625 48.1875 47.75 41.5 
Q 54.890625 34.8125 54.890625 23.390625 
Q 54.890625 11.625 47.5625 5.09375 
Q 40.234375 -1.421875 26.90625 -1.421875 
Q 22.3125 -1.421875 17.546875 -0.640625 
Q 12.796875 0.140625 7.71875 1.703125 
L 7.71875 11.625 
Q 12.109375 9.234375 16.796875 8.0625 
Q 21.484375 6.890625 26.703125 6.890625 
Q 35.15625 6.890625 40.078125 11.328125 
Q 45.015625 15.765625 45.015625 23.390625 
Q 45.015625 31 40.078125 35.4375 
Q 35.15625 39.890625 26.703125 39.890625 
Q 22.75 39.890625 18.8125 39.015625 
Q 14.890625 38.140625 10.796875 36.28125 
z
" id="DejaVuSans-53"/>
       </defs>
       <use xlink:href="#DejaVuSans-53"/>
      </g>
     </g>
    </g>
    <g id="xtick_3">
     <g id="line2d_5">
      <g>
       <use style="stroke:#000000;stroke-width:0.8;" x="216.8425" xlink:href="#m5707178931" y="219.38"/>
      </g>
     </g>
     <g id="line2d_6">
      <g>
       <use style="stroke:#000000;stroke-width:0.8;" x="216.8425" xlink:href="#m7251d58b65" y="22.12"/>
      </g>
     </g>
     <g id="text_3">
      <!-- 10 -->
      <g transform="translate(205.39 236.557187)scale(0.18 -0.18)">
       <defs>
        <path d="M 12.40625 8.296875 
L 28.515625 8.296875 
L 28.515625 63.921875 
L 10.984375 60.40625 
L 10.984375 69.390625 
L 28.421875 72.90625 
L 38.28125 72.90625 
L 38.28125 8.296875 
L 54.390625 8.296875 
L 54.390625 0 
L 12.40625 0 
z
" id="DejaVuSans-49"/>
       </defs>
       <use xlink:href="#DejaVuSans-49"/>
       <use x="63.623047" xlink:href="#DejaVuSans-48"/>
      </g>
     </g>
    </g>
    <g id="xtick_4">
     <g id="line2d_7">
      <g>
       <use style="stroke:#000000;stroke-width:0.8;" x="278.477727" xlink:href="#m5707178931" y="219.38"/>
      </g>
     </g>
     <g id="line2d_8">
      <g>
       <use style="stroke:#000000;stroke-width:0.8;" x="278.477727" xlink:href="#m7251d58b65" y="22.12"/>
      </g>
     </g>
     <g id="text_4">
      <!-- 15 -->
      <g transform="translate(267.025227 236.557187)scale(0.18 -0.18)">
       <use xlink:href="#DejaVuSans-49"/>
       <use x="63.623047" xlink:href="#DejaVuSans-53"/>
      </g>
     </g>
    </g>
    <g id="xtick_5">
     <g id="line2d_9">
      <g>
       <use style="stroke:#000000;stroke-width:0.8;" x="340.112955" xlink:href="#m5707178931" y="219.38"/>
      </g>
     </g>
     <g id="line2d_10">
      <g>
       <use style="stroke:#000000;stroke-width:0.8;" x="340.112955" xlink:href="#m7251d58b65" y="22.12"/>
      </g>
     </g>
     <g id="text_5">
      <!-- 20 -->
      <g transform="translate(328.660455 236.557187)scale(0.18 -0.18)">
       <defs>
        <path d="M 19.1875 8.296875 
L 53.609375 8.296875 
L 53.609375 0 
L 7.328125 0 
L 7.328125 8.296875 
Q 12.9375 14.109375 22.625 23.890625 
Q 32.328125 33.6875 34.8125 36.53125 
Q 39.546875 41.84375 41.421875 45.53125 
Q 43.3125 49.21875 43.3125 52.78125 
Q 43.3125 58.59375 39.234375 62.25 
Q 35.15625 65.921875 28.609375 65.921875 
Q 23.96875 65.921875 18.8125 64.3125 
Q 13.671875 62.703125 7.8125 59.421875 
L 7.8125 69.390625 
Q 13.765625 71.78125 18.9375 73 
Q 24.125 74.21875 28.421875 74.21875 
Q 39.75 74.21875 46.484375 68.546875 
Q 53.21875 62.890625 53.21875 53.421875 
Q 53.21875 48.921875 51.53125 44.890625 
Q 49.859375 40.875 45.40625 35.40625 
Q 44.1875 33.984375 37.640625 27.21875 
Q 31.109375 20.453125 19.1875 8.296875 
z
" id="DejaVuSans-50"/>
       </defs>
       <use xlink:href="#DejaVuSans-50"/>
       <use x="63.623047" xlink:href="#DejaVuSans-48"/>
      </g>
     </g>
    </g>
    <g id="text_6">
     <!-- time t -->
     <g transform="translate(190.120937 267.977812)scale(0.18 -0.18)">
      <defs>
       <path d="M 18.3125 70.21875 
L 18.3125 54.6875 
L 36.8125 54.6875 
L 36.8125 47.703125 
L 18.3125 47.703125 
L 18.3125 18.015625 
Q 18.3125 11.328125 20.140625 9.421875 
Q 21.96875 7.515625 27.59375 7.515625 
L 36.8125 7.515625 
L 36.8125 0 
L 27.59375 0 
Q 17.1875 0 13.234375 3.875 
Q 9.28125 7.765625 9.28125 18.015625 
L 9.28125 47.703125 
L 2.6875 47.703125 
L 2.6875 54.6875 
L 9.28125 54.6875 
L 9.28125 70.21875 
z
" id="DejaVuSans-116"/>
       <path d="M 9.421875 54.6875 
L 18.40625 54.6875 
L 18.40625 0 
L 9.421875 0 
z
M 9.421875 75.984375 
L 18.40625 75.984375 
L 18.40625 64.59375 
L 9.421875 64.59375 
z
" id="DejaVuSans-105"/>
       <path d="M 52 44.1875 
Q 55.375 50.25 60.0625 53.125 
Q 64.75 56 71.09375 56 
Q 79.640625 56 84.28125 50.015625 
Q 88.921875 44.046875 88.921875 33.015625 
L 88.921875 0 
L 79.890625 0 
L 79.890625 32.71875 
Q 79.890625 40.578125 77.09375 44.375 
Q 74.3125 48.1875 68.609375 48.1875 
Q 61.625 48.1875 57.5625 43.546875 
Q 53.515625 38.921875 53.515625 30.90625 
L 53.515625 0 
L 44.484375 0 
L 44.484375 32.71875 
Q 44.484375 40.625 41.703125 44.40625 
Q 38.921875 48.1875 33.109375 48.1875 
Q 26.21875 48.1875 22.15625 43.53125 
Q 18.109375 38.875 18.109375 30.90625 
L 18.109375 0 
L 9.078125 0 
L 9.078125 54.6875 
L 18.109375 54.6875 
L 18.109375 46.1875 
Q 21.1875 51.21875 25.484375 53.609375 
Q 29.78125 56 35.6875 56 
Q 41.65625 56 45.828125 52.96875 
Q 50 49.953125 52 44.1875 
z
" id="DejaVuSans-109"/>
       <path d="M 56.203125 29.59375 
L 56.203125 25.203125 
L 14.890625 25.203125 
Q 15.484375 15.921875 20.484375 11.0625 
Q 25.484375 6.203125 34.421875 6.203125 
Q 39.59375 6.203125 44.453125 7.46875 
Q 49.3125 8.734375 54.109375 11.28125 
L 54.109375 2.78125 
Q 49.265625 0.734375 44.1875 -0.34375 
Q 39.109375 -1.421875 33.890625 -1.421875 
Q 20.796875 -1.421875 13.15625 6.1875 
Q 5.515625 13.8125 5.515625 26.8125 
Q 5.515625 40.234375 12.765625 48.109375 
Q 20.015625 56 32.328125 56 
Q 43.359375 56 49.78125 48.890625 
Q 56.203125 41.796875 56.203125 29.59375 
z
M 47.21875 32.234375 
Q 47.125 39.59375 43.09375 43.984375 
Q 39.0625 48.390625 32.421875 48.390625 
Q 24.90625 48.390625 20.390625 44.140625 
Q 15.875 39.890625 15.1875 32.171875 
z
" id="DejaVuSans-101"/>
       <path id="DejaVuSans-32"/>
      </defs>
      <use xlink:href="#DejaVuSans-116"/>
      <use x="39.208984" xlink:href="#DejaVuSans-105"/>
      <use x="66.992188" xlink:href="#DejaVuSans-109"/>
      <use x="164.404297" xlink:href="#DejaVuSans-101"/>
      <use x="225.927734" xlink:href="#DejaVuSans-32"/>
      <use x="257.714844" xlink:href="#DejaVuSans-116"/>
     </g>
    </g>
   </g>
   <g id="matplotlib.axis_2">
    <g id="ytick_1">
     <g id="line2d_11">
      <defs>
       <path d="M 0 0 
L 3.5 0 
" id="ma367c6d4a4" style="stroke:#000000;stroke-width:0.8;"/>
      </defs>
      <g>
       <use style="stroke:#000000;stroke-width:0.8;" x="81.245" xlink:href="#ma367c6d4a4" y="219.38"/>
      </g>
     </g>
     <g id="line2d_12">
      <defs>
       <path d="M 0 0 
L -3.5 0 
" id="me2c2a0d879" style="stroke:#000000;stroke-width:0.8;"/>
      </defs>
      <g>
       <use style="stroke:#000000;stroke-width:0.8;" x="352.44" xlink:href="#me2c2a0d879" y="219.38"/>
      </g>
     </g>
     <g id="text_7">
      <!-- −2 -->
      <g transform="translate(51.209063 226.218594)scale(0.18 -0.18)">
       <defs>
        <path d="M 10.59375 35.5 
L 73.1875 35.5 
L 73.1875 27.203125 
L 10.59375 27.203125 
z
" id="DejaVuSans-8722"/>
       </defs>
       <use xlink:href="#DejaVuSans-8722"/>
       <use x="83.789062" xlink:href="#DejaVuSans-50"/>
      </g>
     </g>
    </g>
    <g id="ytick_2">
     <g id="line2d_13">
      <g>
       <use style="stroke:#000000;stroke-width:0.8;" x="81.245" xlink:href="#ma367c6d4a4" y="170.065"/>
      </g>
     </g>
     <g id="line2d_14">
      <g>
       <use style="stroke:#000000;stroke-width:0.8;" x="352.44" xlink:href="#me2c2a0d879" y="170.065"/>
      </g>
     </g>
     <g id="text_8">
      <!-- −1 -->
      <g transform="translate(51.209063 176.903594)scale(0.18 -0.18)">
       <use xlink:href="#DejaVuSans-8722"/>
       <use x="83.789062" xlink:href="#DejaVuSans-49"/>
      </g>
     </g>
    </g>
    <g id="ytick_3">
     <g id="line2d_15">
      <g>
       <use style="stroke:#000000;stroke-width:0.8;" x="81.245" xlink:href="#ma367c6d4a4" y="120.75"/>
      </g>
     </g>
     <g id="line2d_16">
      <g>
       <use style="stroke:#000000;stroke-width:0.8;" x="352.44" xlink:href="#me2c2a0d879" y="120.75"/>
      </g>
     </g>
     <g id="text_9">
      <!-- 0 -->
      <g transform="translate(66.2925 127.588594)scale(0.18 -0.18)">
       <use xlink:href="#DejaVuSans-48"/>
      </g>
     </g>
    </g>
    <g id="ytick_4">
     <g id="line2d_17">
      <g>
       <use style="stroke:#000000;stroke-width:0.8;" x="81.245" xlink:href="#ma367c6d4a4" y="71.435"/>
      </g>
     </g>
     <g id="line2d_18">
      <g>
       <use style="stroke:#000000;stroke-width:0.8;" x="352.44" xlink:href="#me2c2a0d879" y="71.435"/>
      </g>
     </g>
     <g id="text_10">
      <!-- 1 -->
      <g transform="translate(66.2925 78.273594)scale(0.18 -0.18)">
       <use xlink:href="#DejaVuSans-49"/>
      </g>
     </g>
    </g>
    <g id="ytick_5">
     <g id="line2d_19">
      <g>
       <use style="stroke:#000000;stroke-width:0.8;" x="81.245" xlink:href="#ma367c6d4a4" y="22.12"/>
      </g>
     </g>
     <g id="line2d_20">
      <g>
       <use style="stroke:#000000;stroke-width:0.8;" x="352.44" xlink:href="#me2c2a0d879" y="22.12"/>
      </g>
     </g>
     <g id="text_11">
      <!-- 2 -->
      <g transform="translate(66.2925 28.958594)scale(0.18 -0.18)">
       <use xlink:href="#DejaVuSans-50"/>
      </g>
     </g>
    </g>
    <g id="text_12">
     <!-- stress $\sigma$,strain $\gamma$ -->
     <g transform="translate(33.429063 192.84)rotate(-90)scale(0.18 -0.18)">
      <defs>
       <path d="M 44.28125 53.078125 
L 44.28125 44.578125 
Q 40.484375 46.53125 36.375 47.5 
Q 32.28125 48.484375 27.875 48.484375 
Q 21.1875 48.484375 17.84375 46.4375 
Q 14.5 44.390625 14.5 40.28125 
Q 14.5 37.15625 16.890625 35.375 
Q 19.28125 33.59375 26.515625 31.984375 
L 29.59375 31.296875 
Q 39.15625 29.25 43.1875 25.515625 
Q 47.21875 21.78125 47.21875 15.09375 
Q 47.21875 7.46875 41.1875 3.015625 
Q 35.15625 -1.421875 24.609375 -1.421875 
Q 20.21875 -1.421875 15.453125 -0.5625 
Q 10.6875 0.296875 5.421875 2 
L 5.421875 11.28125 
Q 10.40625 8.6875 15.234375 7.390625 
Q 20.0625 6.109375 24.8125 6.109375 
Q 31.15625 6.109375 34.5625 8.28125 
Q 37.984375 10.453125 37.984375 14.40625 
Q 37.984375 18.0625 35.515625 20.015625 
Q 33.0625 21.96875 24.703125 23.78125 
L 21.578125 24.515625 
Q 13.234375 26.265625 9.515625 29.90625 
Q 5.8125 33.546875 5.8125 39.890625 
Q 5.8125 47.609375 11.28125 51.796875 
Q 16.75 56 26.8125 56 
Q 31.78125 56 36.171875 55.265625 
Q 40.578125 54.546875 44.28125 53.078125 
z
" id="DejaVuSans-115"/>
       <path d="M 41.109375 46.296875 
Q 39.59375 47.171875 37.8125 47.578125 
Q 36.03125 48 33.890625 48 
Q 26.265625 48 22.1875 43.046875 
Q 18.109375 38.09375 18.109375 28.8125 
L 18.109375 0 
L 9.078125 0 
L 9.078125 54.6875 
L 18.109375 54.6875 
L 18.109375 46.1875 
Q 20.953125 51.171875 25.484375 53.578125 
Q 30.03125 56 36.53125 56 
Q 37.453125 56 38.578125 55.875 
Q 39.703125 55.765625 41.0625 55.515625 
z
" id="DejaVuSans-114"/>
       <path d="M 34.671875 47.5625 
Q 27.25 47.5625 22.21875 42.1875 
Q 16.890625 36.578125 15.140625 27.296875 
Q 13.1875 17.484375 16.3125 11.8125 
Q 19.390625 6.203125 26.65625 6.203125 
Q 33.84375 6.203125 39.109375 11.859375 
Q 44.4375 17.53125 46.34375 27.296875 
Q 48.046875 36.234375 45.015625 42.1875 
Q 42.1875 47.5625 34.671875 47.5625 
z
M 36.078125 54.734375 
L 65.921875 54.6875 
L 64.15625 45.703125 
L 54.109375 45.703125 
Q 57.90625 38.09375 55.859375 27.296875 
Q 53.21875 13.875 45.0625 6.25 
Q 36.859375 -1.421875 25.140625 -1.421875 
Q 13.375 -1.421875 8.203125 6.25 
Q 3.03125 13.875 5.671875 27.296875 
Q 8.25 40.765625 16.40625 48.390625 
Q 23.1875 54.734375 36.078125 54.734375 
z
" id="DejaVuSans-Oblique-963"/>
       <path d="M 11.71875 12.40625 
L 22.015625 12.40625 
L 22.015625 4 
L 14.015625 -11.625 
L 7.71875 -11.625 
L 11.71875 4 
z
" id="DejaVuSans-44"/>
       <path d="M 34.28125 27.484375 
Q 23.390625 27.484375 19.1875 25 
Q 14.984375 22.515625 14.984375 16.5 
Q 14.984375 11.71875 18.140625 8.90625 
Q 21.296875 6.109375 26.703125 6.109375 
Q 34.1875 6.109375 38.703125 11.40625 
Q 43.21875 16.703125 43.21875 25.484375 
L 43.21875 27.484375 
z
M 52.203125 31.203125 
L 52.203125 0 
L 43.21875 0 
L 43.21875 8.296875 
Q 40.140625 3.328125 35.546875 0.953125 
Q 30.953125 -1.421875 24.3125 -1.421875 
Q 15.921875 -1.421875 10.953125 3.296875 
Q 6 8.015625 6 15.921875 
Q 6 25.140625 12.171875 29.828125 
Q 18.359375 34.515625 30.609375 34.515625 
L 43.21875 34.515625 
L 43.21875 35.40625 
Q 43.21875 41.609375 39.140625 45 
Q 35.0625 48.390625 27.6875 48.390625 
Q 23 48.390625 18.546875 47.265625 
Q 14.109375 46.140625 10.015625 43.890625 
L 10.015625 52.203125 
Q 14.9375 54.109375 19.578125 55.046875 
Q 24.21875 56 28.609375 56 
Q 40.484375 56 46.34375 49.84375 
Q 52.203125 43.703125 52.203125 31.203125 
z
" id="DejaVuSans-97"/>
       <path d="M 54.890625 33.015625 
L 54.890625 0 
L 45.90625 0 
L 45.90625 32.71875 
Q 45.90625 40.484375 42.875 44.328125 
Q 39.84375 48.1875 33.796875 48.1875 
Q 26.515625 48.1875 22.3125 43.546875 
Q 18.109375 38.921875 18.109375 30.90625 
L 18.109375 0 
L 9.078125 0 
L 9.078125 54.6875 
L 18.109375 54.6875 
L 18.109375 46.1875 
Q 21.34375 51.125 25.703125 53.5625 
Q 30.078125 56 35.796875 56 
Q 45.21875 56 50.046875 50.171875 
Q 54.890625 44.34375 54.890625 33.015625 
z
" id="DejaVuSans-110"/>
       <path d="M 23.296875 46.09375 
L 28.71875 12.3125 
L 54 54.6875 
L 63.53125 54.6875 
L 30.8125 0 
L 26.765625 -20.796875 
L 17.78125 -20.796875 
L 21.828125 0 
L 15.4375 40.828125 
Q 14.453125 46.96875 9.8125 46.96875 
L 7.421875 46.96875 
L 8.890625 54.6875 
L 12.3125 54.6875 
Q 21.921875 54.6875 23.296875 46.09375 
z
" id="DejaVuSans-Oblique-947"/>
      </defs>
      <use transform="translate(0 0.015625)" xlink:href="#DejaVuSans-115"/>
      <use transform="translate(52.099609 0.015625)" xlink:href="#DejaVuSans-116"/>
      <use transform="translate(91.308594 0.015625)" xlink:href="#DejaVuSans-114"/>
      <use transform="translate(132.421875 0.015625)" xlink:href="#DejaVuSans-101"/>
      <use transform="translate(193.945312 0.015625)" xlink:href="#DejaVuSans-115"/>
      <use transform="translate(246.044922 0.015625)" xlink:href="#DejaVuSans-115"/>
      <use transform="translate(298.144531 0.015625)" xlink:href="#DejaVuSans-32"/>
      <use transform="translate(329.931641 0.015625)" xlink:href="#DejaVuSans-Oblique-963"/>
      <use transform="translate(393.310547 0.015625)" xlink:href="#DejaVuSans-44"/>
      <use transform="translate(425.097656 0.015625)" xlink:href="#DejaVuSans-115"/>
      <use transform="translate(477.197266 0.015625)" xlink:href="#DejaVuSans-116"/>
      <use transform="translate(516.40625 0.015625)" xlink:href="#DejaVuSans-114"/>
      <use transform="translate(557.519531 0.015625)" xlink:href="#DejaVuSans-97"/>
      <use transform="translate(618.798828 0.015625)" xlink:href="#DejaVuSans-105"/>
      <use transform="translate(646.582031 0.015625)" xlink:href="#DejaVuSans-110"/>
      <use transform="translate(709.960938 0.015625)" xlink:href="#DejaVuSans-32"/>
      <use transform="translate(741.748047 0.015625)" xlink:href="#DejaVuSans-Oblique-947"/>
     </g>
    </g>
   </g>
   <g id="line2d_21">
    <path clip-path="url(#p074d1e1a7f)" d="M 93.572045 71.435 
L 96.062358 72.437908 
L 98.55267 75.40584 
L 101.042982 80.21808 
L 103.533294 86.678897 
L 106.023607 94.525507 
L 108.513919 103.43876 
L 111.004231 113.056122 
L 113.494543 122.986422 
L 115.984855 132.825758 
L 118.475168 142.173931 
L 120.96548 150.650716 
L 123.455792 157.911333 
L 125.946104 163.660467 
L 128.436416 167.66428 
L 130.926729 169.759923 
L 133.417041 169.862158 
L 135.907353 167.966827 
L 138.397665 164.151021 
L 140.887978 158.569941 
L 143.37829 151.45059 
L 145.868602 143.082537 
L 148.358914 133.80614 
L 150.849226 123.998704 
L 153.339539 114.059132 
L 155.829851 104.391701 
L 158.320163 95.38962 
L 160.810475 87.419035 
L 163.300787 80.80414 
L 165.7911 75.813984 
L 168.281412 72.651535 
L 170.771724 71.445422 
L 173.262036 72.2447 
L 175.752348 75.016862 
L 178.242661 79.649152 
L 180.732973 85.95316 
L 183.223285 93.672478 
L 185.713597 102.493136 
L 188.20391 112.056365 
L 190.694222 121.973195 
L 193.184534 131.840273 
L 195.674846 141.25627 
L 198.165158 149.838205 
L 200.655471 157.237019 
L 203.145783 163.151777 
L 205.636095 167.341904 
L 208.126407 169.636973 
L 210.616719 169.943635 
L 213.107032 168.249418 
L 215.597344 164.623231 
L 218.087656 159.212563 
L 220.577968 152.237487 
L 223.068281 143.981703 
L 225.558593 134.781004 
L 228.048905 125.009613 
L 230.539217 115.064969 
L 233.029529 105.351556 
L 235.519842 96.264451 
L 238.010154 88.173261 
L 240.500466 81.407083 
L 242.990778 76.24112 
L 245.48109 72.885492 
L 247.971403 71.476682 
L 250.461715 72.071994 
L 252.952027 74.647213 
L 255.442339 79.097595 
L 257.932652 85.242129 
L 260.422964 92.830894 
L 262.913276 101.555228 
L 265.403588 111.060281 
L 267.8939 120.95945 
L 270.384213 130.8501 
L 272.874525 140.329942 
L 275.364837 149.013399 
L 277.855149 156.547284 
L 280.345461 162.625165 
L 282.835774 166.999835 
L 285.326086 169.493361 
L 287.816398 170.00432 
L 290.30671 168.511932 
L 292.797022 165.076897 
L 295.287335 159.838929 
L 297.777647 153.011076 
L 300.267959 144.871051 
L 302.758271 135.749937 
L 305.248584 126.018722 
L 307.738896 116.07321 
L 310.229208 106.317919 
L 312.71952 97.149632 
L 315.209832 88.941256 
L 317.700145 82.026654 
L 320.190457 76.687068 
L 322.680769 73.139678 
L 325.171081 71.528769 
L 327.661393 71.919862 
L 330.151706 74.29705 
L 332.642018 78.563644 
L 335.13233 84.546106 
L 337.622642 92.00111 
L 340.112955 100.625433 
" style="fill:none;stroke:#000000;stroke-linecap:square;"/>
   </g>
   <g id="line2d_22">
    <path clip-path="url(#p074d1e1a7f)" d="M 93.572045 46.7775 
L 96.062358 48.281862 
L 98.55267 52.73376 
L 101.042982 59.95212 
L 103.533294 69.643346 
L 106.023607 81.41326 
L 108.513919 94.78314 
L 111.004231 109.209183 
L 113.494543 124.104633 
L 115.984855 138.863638 
L 118.475168 152.885897 
L 120.96548 165.601074 
L 123.455792 176.492 
L 125.946104 185.115701 
L 128.436416 191.12142 
L 130.926729 194.264884 
L 133.417041 194.418237 
L 135.907353 191.575241 
L 138.397665 185.851531 
L 140.887978 177.479911 
L 143.37829 166.800885 
L 145.868602 154.248805 
L 148.358914 140.33421 
L 150.849226 125.623056 
L 153.339539 110.713698 
L 155.829851 96.212551 
L 158.320163 82.70943 
L 160.810475 70.753553 
L 163.300787 60.83121 
L 165.7911 53.345976 
L 168.281412 48.602303 
L 170.771724 46.793133 
L 173.262036 47.992051 
L 175.752348 52.150293 
L 178.242661 59.098728 
L 180.732973 68.554739 
L 183.223285 80.133717 
L 185.713597 93.364704 
L 188.20391 107.709547 
L 190.694222 122.584792 
L 193.184534 137.385409 
L 195.674846 151.509405 
L 198.165158 164.382307 
L 200.655471 175.480529 
L 203.145783 184.352665 
L 205.636095 190.637856 
L 208.126407 194.080459 
L 210.616719 194.540453 
L 213.107032 191.999127 
L 215.597344 186.559846 
L 218.087656 178.443845 
L 220.577968 167.981231 
L 223.068281 155.597555 
L 225.558593 141.796506 
L 228.048905 127.13942 
L 230.539217 112.222454 
L 233.029529 97.652333 
L 235.519842 84.021677 
L 238.010154 71.884892 
L 240.500466 61.735624 
L 242.990778 53.98668 
L 245.48109 48.953237 
L 247.971403 46.840024 
L 250.461715 47.732991 
L 252.952027 51.595819 
L 255.442339 58.271393 
L 257.932652 67.488194 
L 260.422964 78.871341 
L 262.913276 91.957842 
L 265.403588 106.215422 
L 267.8939 121.064175 
L 270.384213 135.900149 
L 272.874525 150.119913 
L 275.364837 163.145099 
L 277.855149 174.445925 
L 280.345461 183.562748 
L 282.835774 190.124753 
L 285.326086 193.865041 
L 287.816398 194.631481 
L 290.30671 192.392899 
L 292.797022 187.240346 
L 295.287335 179.383394 
L 297.777647 169.141615 
L 300.267959 156.931577 
L 302.758271 143.249905 
L 305.248584 128.653083 
L 307.738896 113.734814 
L 310.229208 99.101878 
L 312.71952 85.349448 
L 315.209832 73.036884 
L 317.700145 62.664981 
L 320.190457 54.655603 
L 322.680769 49.334518 
L 325.171081 46.918154 
L 327.661393 47.504793 
L 330.151706 51.070574 
L 332.642018 57.470465 
L 335.13233 66.44416 
L 337.622642 77.626665 
L 340.112955 90.56315 
" style="fill:none;stroke:#000000;stroke-dasharray:3.7,1.6;stroke-dashoffset:0;"/>
   </g>
   <g id="patch_3">
    <path d="M 81.245 219.38 
L 81.245 22.12 
" style="fill:none;stroke:#000000;stroke-linecap:square;stroke-linejoin:miter;stroke-width:0.8;"/>
   </g>
   <g id="patch_4">
    <path d="M 352.44 219.38 
L 352.44 22.12 
" style="fill:none;stroke:#000000;stroke-linecap:square;stroke-linejoin:miter;stroke-width:0.8;"/>
   </g>
   <g id="patch_5">
    <path d="M 81.245 219.38 
L 352.44 219.38 
" style="fill:none;stroke:#000000;stroke-linecap:square;stroke-linejoin:miter;stroke-width:0.8;"/>
   </g>
   <g id="patch_6">
    <path d="M 81.245 22.12 
L 352.44 22.12 
" style="fill:none;stroke:#000000;stroke-linecap:square;stroke-linejoin:miter;stroke-width:0.8;"/>
   </g>
   <g id="legend_1">
    <g id="patch_7">
     <path d="M 91.045 212.38 
L 177.2675 212.38 
Q 180.0675 212.38 180.0675 209.58 
L 180.0675 169.88125 
Q 180.0675 167.08125 177.2675 167.08125 
L 91.045 167.08125 
Q 88.245 167.08125 88.245 169.88125 
L 88.245 209.58 
Q 88.245 212.38 91.045 212.38 
z
" style="fill:#ffffff;opacity:0.8;stroke:#cccccc;stroke-linejoin:miter;"/>
    </g>
    <g id="line2d_23">
     <path d="M 93.845 178.419062 
L 121.845 178.419062 
" style="fill:none;stroke:#000000;stroke-linecap:square;"/>
    </g>
    <g id="line2d_24"/>
    <g id="text_13">
     <!-- strain -->
     <g transform="translate(133.045 183.319062)scale(0.14 -0.14)">
      <use xlink:href="#DejaVuSans-115"/>
      <use x="52.099609" xlink:href="#DejaVuSans-116"/>
      <use x="91.308594" xlink:href="#DejaVuSans-114"/>
      <use x="132.421875" xlink:href="#DejaVuSans-97"/>
      <use x="193.701172" xlink:href="#DejaVuSans-105"/>
      <use x="221.484375" xlink:href="#DejaVuSans-110"/>
     </g>
    </g>
    <g id="line2d_25">
     <path d="M 93.845 198.968437 
L 121.845 198.968437 
" style="fill:none;stroke:#000000;stroke-dasharray:3.7,1.6;stroke-dashoffset:0;"/>
    </g>
    <g id="line2d_26"/>
    <g id="text_14">
     <!-- stress -->
     <g transform="translate(133.045 203.868437)scale(0.14 -0.14)">
      <use xlink:href="#DejaVuSans-115"/>
      <use x="52.099609" xlink:href="#DejaVuSans-116"/>
      <use x="91.308594" xlink:href="#DejaVuSans-114"/>
      <use x="130.171875" xlink:href="#DejaVuSans-101"/>
      <use x="191.695312" xlink:href="#DejaVuSans-115"/>
      <use x="243.794922" xlink:href="#DejaVuSans-115"/>
     </g>
    </g>
   </g>
  </g>
  <g id="axes_2">
   <g id="patch_8">
    <path d="M 433.685 219.38 
L 704.88 219.38 
L 704.88 22.12 
L 433.685 22.12 
z
" style="fill:#ffffff;"/>
   </g>
   <g id="matplotlib.axis_3">
    <g id="xtick_6">
     <g id="line2d_27">
      <g>
       <use style="stroke:#000000;stroke-width:0.8;" x="446.012045" xlink:href="#m5707178931" y="219.38"/>
      </g>
     </g>
     <g id="line2d_28">
      <g>
       <use style="stroke:#000000;stroke-width:0.8;" x="446.012045" xlink:href="#m7251d58b65" y="22.12"/>
      </g>
     </g>
     <g id="text_15">
      <!-- 0 -->
      <g transform="translate(440.285795 236.557187)scale(0.18 -0.18)">
       <use xlink:href="#DejaVuSans-48"/>
      </g>
     </g>
    </g>
    <g id="xtick_7">
     <g id="line2d_29">
      <g>
       <use style="stroke:#000000;stroke-width:0.8;" x="507.647273" xlink:href="#m5707178931" y="219.38"/>
      </g>
     </g>
     <g id="line2d_30">
      <g>
       <use style="stroke:#000000;stroke-width:0.8;" x="507.647273" xlink:href="#m7251d58b65" y="22.12"/>
      </g>
     </g>
     <g id="text_16">
      <!-- 5 -->
      <g transform="translate(501.921023 236.557187)scale(0.18 -0.18)">
       <use xlink:href="#DejaVuSans-53"/>
      </g>
     </g>
    </g>
    <g id="xtick_8">
     <g id="line2d_31">
      <g>
       <use style="stroke:#000000;stroke-width:0.8;" x="569.2825" xlink:href="#m5707178931" y="219.38"/>
      </g>
     </g>
     <g id="line2d_32">
      <g>
       <use style="stroke:#000000;stroke-width:0.8;" x="569.2825" xlink:href="#m7251d58b65" y="22.12"/>
      </g>
     </g>
     <g id="text_17">
      <!-- 10 -->
      <g transform="translate(557.83 236.557187)scale(0.18 -0.18)">
       <use xlink:href="#DejaVuSans-49"/>
       <use x="63.623047" xlink:href="#DejaVuSans-48"/>
      </g>
     </g>
    </g>
    <g id="xtick_9">
     <g id="line2d_33">
      <g>
       <use style="stroke:#000000;stroke-width:0.8;" x="630.917727" xlink:href="#m5707178931" y="219.38"/>
      </g>
     </g>
     <g id="line2d_34">
      <g>
       <use style="stroke:#000000;stroke-width:0.8;" x="630.917727" xlink:href="#m7251d58b65" y="22.12"/>
      </g>
     </g>
     <g id="text_18">
      <!-- 15 -->
      <g transform="translate(619.465227 236.557187)scale(0.18 -0.18)">
       <use xlink:href="#DejaVuSans-49"/>
       <use x="63.623047" xlink:href="#DejaVuSans-53"/>
      </g>
     </g>
    </g>
    <g id="xtick_10">
     <g id="line2d_35">
      <g>
       <use style="stroke:#000000;stroke-width:0.8;" x="692.552955" xlink:href="#m5707178931" y="219.38"/>
      </g>
     </g>
     <g id="line2d_36">
      <g>
       <use style="stroke:#000000;stroke-width:0.8;" x="692.552955" xlink:href="#m7251d58b65" y="22.12"/>
      </g>
     </g>
     <g id="text_19">
      <!-- 20 -->
      <g transform="translate(681.100455 236.557187)scale(0.18 -0.18)">
       <use xlink:href="#DejaVuSans-50"/>
       <use x="63.623047" xlink:href="#DejaVuSans-48"/>
      </g>
     </g>
    </g>
    <g id="text_20">
     <!-- time t -->
     <g transform="translate(542.560938 267.977812)scale(0.18 -0.18)">
      <use xlink:href="#DejaVuSans-116"/>
      <use x="39.208984" xlink:href="#DejaVuSans-105"/>
      <use x="66.992188" xlink:href="#DejaVuSans-109"/>
      <use x="164.404297" xlink:href="#DejaVuSans-101"/>
      <use x="225.927734" xlink:href="#DejaVuSans-32"/>
      <use x="257.714844" xlink:href="#DejaVuSans-116"/>
     </g>
    </g>
   </g>
   <g id="matplotlib.axis_4">
    <g id="ytick_6">
     <g id="line2d_37">
      <g>
       <use style="stroke:#000000;stroke-width:0.8;" x="433.685" xlink:href="#ma367c6d4a4" y="219.38"/>
      </g>
     </g>
     <g id="line2d_38">
      <g>
       <use style="stroke:#000000;stroke-width:0.8;" x="704.88" xlink:href="#me2c2a0d879" y="219.38"/>
      </g>
     </g>
     <g id="text_21">
      <!-- −2 -->
      <g transform="translate(403.649063 226.218594)scale(0.18 -0.18)">
       <use xlink:href="#DejaVuSans-8722"/>
       <use x="83.789062" xlink:href="#DejaVuSans-50"/>
      </g>
     </g>
    </g>
    <g id="ytick_7">
     <g id="line2d_39">
      <g>
       <use style="stroke:#000000;stroke-width:0.8;" x="433.685" xlink:href="#ma367c6d4a4" y="170.065"/>
      </g>
     </g>
     <g id="line2d_40">
      <g>
       <use style="stroke:#000000;stroke-width:0.8;" x="704.88" xlink:href="#me2c2a0d879" y="170.065"/>
      </g>
     </g>
     <g id="text_22">
      <!-- −1 -->
      <g transform="translate(403.649063 176.903594)scale(0.18 -0.18)">
       <use xlink:href="#DejaVuSans-8722"/>
       <use x="83.789062" xlink:href="#DejaVuSans-49"/>
      </g>
     </g>
    </g>
    <g id="ytick_8">
     <g id="line2d_41">
      <g>
       <use style="stroke:#000000;stroke-width:0.8;" x="433.685" xlink:href="#ma367c6d4a4" y="120.75"/>
      </g>
     </g>
     <g id="line2d_42">
      <g>
       <use style="stroke:#000000;stroke-width:0.8;" x="704.88" xlink:href="#me2c2a0d879" y="120.75"/>
      </g>
     </g>
     <g id="text_23">
      <!-- 0 -->
      <g transform="translate(418.7325 127.588594)scale(0.18 -0.18)">
       <use xlink:href="#DejaVuSans-48"/>
      </g>
     </g>
    </g>
    <g id="ytick_9">
     <g id="line2d_43">
      <g>
       <use style="stroke:#000000;stroke-width:0.8;" x="433.685" xlink:href="#ma367c6d4a4" y="71.435"/>
      </g>
     </g>
     <g id="line2d_44">
      <g>
       <use style="stroke:#000000;stroke-width:0.8;" x="704.88" xlink:href="#me2c2a0d879" y="71.435"/>
      </g>
     </g>
     <g id="text_24">
      <!-- 1 -->
      <g transform="translate(418.7325 78.273594)scale(0.18 -0.18)">
       <use xlink:href="#DejaVuSans-49"/>
      </g>
     </g>
    </g>
    <g id="ytick_10">
     <g id="line2d_45">
      <g>
       <use style="stroke:#000000;stroke-width:0.8;" x="433.685" xlink:href="#ma367c6d4a4" y="22.12"/>
      </g>
     </g>
     <g id="line2d_46">
      <g>
       <use style="stroke:#000000;stroke-width:0.8;" x="704.88" xlink:href="#me2c2a0d879" y="22.12"/>
      </g>
     </g>
     <g id="text_25">
      <!-- 2 -->
      <g transform="translate(418.7325 28.958594)scale(0.18 -0.18)">
       <use xlink:href="#DejaVuSans-50"/>
      </g>
     </g>
    </g>
    <g id="text_26">
     <!-- stress $\sigma$,strain $\gamma$ -->
     <g transform="translate(385.869063 192.84)rotate(-90)scale(0.18 -0.18)">
      <use transform="translate(0 0.015625)" xlink:href="#DejaVuSans-115"/>
      <use transform="translate(52.099609 0.015625)" xlink:href="#DejaVuSans-116"/>
      <use transform="translate(91.308594 0.015625)" xlink:href="#DejaVuSans-114"/>
      <use transform="translate(132.421875 0.015625)" xlink:href="#DejaVuSans-101"/>
      <use transform="translate(193.945312 0.015625)" xlink:href="#DejaVuSans-115"/>
      <use transform="translate(246.044922 0.015625)" xlink:href="#DejaVuSans-115"/>
      <use transform="translate(298.144531 0.015625)" xlink:href="#DejaVuSans-32"/>
      <use transform="translate(329.931641 0.015625)" xlink:href="#DejaVuSans-Oblique-963"/>
      <use transform="translate(393.310547 0.015625)" xlink:href="#DejaVuSans-44"/>
      <use transform="translate(425.097656 0.015625)" xlink:href="#DejaVuSans-115"/>
      <use transform="translate(477.197266 0.015625)" xlink:href="#DejaVuSans-116"/>
      <use transform="translate(516.40625 0.015625)" xlink:href="#DejaVuSans-114"/>
      <use transform="translate(557.519531 0.015625)" xlink:href="#DejaVuSans-97"/>
      <use transform="translate(618.798828 0.015625)" xlink:href="#DejaVuSans-105"/>
      <use transform="translate(646.582031 0.015625)" xlink:href="#DejaVuSans-110"/>
      <use transform="translate(709.960938 0.015625)" xlink:href="#DejaVuSans-32"/>
      <use transform="translate(741.748047 0.015625)" xlink:href="#DejaVuSans-Oblique-947"/>
     </g>
    </g>
   </g>
   <g id="line2d_47">
    <path clip-path="url(#p60bdf7b272)" d="M 446.012045 71.435 
L 448.502358 72.437908 
L 450.99267 75.40584 
L 453.482982 80.21808 
L 455.973294 86.678897 
L 458.463607 94.525507 
L 460.953919 103.43876 
L 463.444231 113.056122 
L 465.934543 122.986422 
L 468.424855 132.825758 
L 470.915168 142.173931 
L 473.40548 150.650716 
L 475.895792 157.911333 
L 478.386104 163.660467 
L 480.876416 167.66428 
L 483.366729 169.759923 
L 485.857041 169.862158 
L 488.347353 167.966827 
L 490.837665 164.151021 
L 493.327978 158.569941 
L 495.81829 151.45059 
L 498.308602 143.082537 
L 500.798914 133.80614 
L 503.289226 123.998704 
L 505.779539 114.059132 
L 508.269851 104.391701 
L 510.760163 95.38962 
L 513.250475 87.419035 
L 515.740787 80.80414 
L 518.2311 75.813984 
L 520.721412 72.651535 
L 523.211724 71.445422 
L 525.702036 72.2447 
L 528.192348 75.016862 
L 530.682661 79.649152 
L 533.172973 85.95316 
L 535.663285 93.672478 
L 538.153597 102.493136 
L 540.64391 112.056365 
L 543.134222 121.973195 
L 545.624534 131.840273 
L 548.114846 141.25627 
L 550.605158 149.838205 
L 553.095471 157.237019 
L 555.585783 163.151777 
L 558.076095 167.341904 
L 560.566407 169.636973 
L 563.056719 169.943635 
L 565.547032 168.249418 
L 568.037344 164.623231 
L 570.527656 159.212563 
L 573.017968 152.237487 
L 575.508281 143.981703 
L 577.998593 134.781004 
L 580.488905 125.009613 
L 582.979217 115.064969 
L 585.469529 105.351556 
L 587.959842 96.264451 
L 590.450154 88.173261 
L 592.940466 81.407083 
L 595.430778 76.24112 
L 597.92109 72.885492 
L 600.411403 71.476682 
L 602.901715 72.071994 
L 605.392027 74.647213 
L 607.882339 79.097595 
L 610.372652 85.242129 
L 612.862964 92.830894 
L 615.353276 101.555228 
L 617.843588 111.060281 
L 620.3339 120.95945 
L 622.824213 130.8501 
L 625.314525 140.329942 
L 627.804837 149.013399 
L 630.295149 156.547284 
L 632.785461 162.625165 
L 635.275774 166.999835 
L 637.766086 169.493361 
L 640.256398 170.00432 
L 642.74671 168.511932 
L 645.237022 165.076897 
L 647.727335 159.838929 
L 650.217647 153.011076 
L 652.707959 144.871051 
L 655.198271 135.749937 
L 657.688584 126.018722 
L 660.178896 116.07321 
L 662.669208 106.317919 
L 665.15952 97.149632 
L 667.649832 88.941256 
L 670.140145 82.026654 
L 672.630457 76.687068 
L 675.120769 73.139678 
L 677.611081 71.528769 
L 680.101393 71.919862 
L 682.591706 74.29705 
L 685.082018 78.563644 
L 687.57233 84.546106 
L 690.062642 92.00111 
L 692.552955 100.625433 
" style="fill:none;stroke:#000000;stroke-linecap:square;"/>
   </g>
   <g id="line2d_48">
    <path clip-path="url(#p60bdf7b272)" d="M 446.012045 120.75 
L 448.502358 130.644998 
L 450.99267 140.137532 
L 453.482982 148.841506 
L 455.973294 156.402899 
L 458.463607 162.514162 
L 460.953919 166.926728 
L 463.444231 169.461123 
L 465.934543 170.014263 
L 468.424855 168.563652 
L 470.915168 165.168289 
L 473.40548 159.966277 
L 475.895792 153.1692 
L 478.386104 145.053519 
L 480.876416 135.949328 
L 483.366729 126.226926 
L 485.857041 116.281758 
L 488.347353 106.518329 
L 490.837665 97.333753 
L 493.327978 89.101599 
L 495.81829 82.156697 
L 498.308602 76.781522 
L 500.798914 73.194701 
L 503.289226 71.542123 
L 505.779539 71.891004 
L 508.269851 74.227153 
L 510.760163 78.455552 
L 513.250475 84.404216 
L 515.740787 91.831192 
L 518.2311 100.434398 
L 520.721412 109.863912 
L 523.211724 119.736202 
L 525.702036 129.649727 
L 528.192348 139.201268 
L 530.682661 148.002331 
L 533.172973 155.694944 
L 535.663285 161.966223 
L 538.153597 166.561092 
L 540.64391 169.292661 
L 543.134222 170.049828 
L 545.624534 168.801796 
L 548.114846 165.599327 
L 550.605158 160.572676 
L 553.095471 153.926297 
L 555.585783 145.930519 
L 558.076095 136.91056 
L 560.566407 127.233295 
L 563.056719 117.29233 
L 565.547032 107.492001 
L 568.037344 98.230922 
L 570.527656 89.885774 
L 573.017968 82.795984 
L 575.508281 77.249917 
L 577.998593 73.473154 
L 580.488905 71.619308 
L 582.979217 71.763781 
L 585.469529 73.900698 
L 587.959842 77.943142 
L 590.450154 83.726692 
L 592.940466 91.016112 
L 595.430778 99.514915 
L 597.92109 108.877424 
L 600.411403 118.722833 
L 602.901715 128.650694 
L 605.392027 138.257205 
L 607.882339 147.151637 
L 610.372652 154.97222 
L 612.862964 161.400864 
L 615.353276 166.176093 
L 617.843588 169.103682 
L 620.3339 170.064555 
L 622.824213 169.01963 
L 625.314525 166.011408 
L 627.804837 161.162244 
L 630.295149 154.669371 
L 632.785461 146.796876 
L 635.275774 137.864963 
L 637.766086 128.236923 
L 640.256398 118.304364 
L 642.74671 108.471277 
L 645.237022 99.137609 
L 647.727335 90.682995 
L 650.217647 83.451311 
L 652.707959 77.736698 
L 655.198271 73.771589 
L 657.688584 71.717258 
L 660.178896 71.657263 
L 662.669208 73.594043 
L 665.15952 77.448824 
L 667.649832 83.064817 
L 670.140145 90.2136 
L 672.630457 98.604407 
L 675.120769 107.895954 
L 677.611081 117.71032 
L 680.101393 127.648321 
L 682.591706 137.305743 
L 685.082018 146.289784 
L 687.57233 154.235031 
L 690.062642 160.818324 
L 692.552955 165.771895 
" style="fill:none;stroke:#000000;stroke-dasharray:3.7,1.6;stroke-dashoffset:0;"/>
   </g>
   <g id="patch_9">
    <path d="M 433.685 219.38 
L 433.685 22.12 
" style="fill:none;stroke:#000000;stroke-linecap:square;stroke-linejoin:miter;stroke-width:0.8;"/>
   </g>
   <g id="patch_10">
    <path d="M 704.88 219.38 
L 704.88 22.12 
" style="fill:none;stroke:#000000;stroke-linecap:square;stroke-linejoin:miter;stroke-width:0.8;"/>
   </g>
   <g id="patch_11">
    <path d="M 433.685 219.38 
L 704.88 219.38 
" style="fill:none;stroke:#000000;stroke-linecap:square;stroke-linejoin:miter;stroke-width:0.8;"/>
   </g>
   <g id="patch_12">
    <path d="M 433.685 22.12 
L 704.88 22.12 
" style="fill:none;stroke:#000000;stroke-linecap:square;stroke-linejoin:miter;stroke-width:0.8;"/>
   </g>
   <g id="legend_2">
    <g id="patch_13">
     <path d="M 608.8575 212.38 
L 695.08 212.38 
Q 697.88 212.38 697.88 209.58 
L 697.88 169.88125 
Q 697.88 167.08125 695.08 167.08125 
L 608.8575 167.08125 
Q 606.0575 167.08125 606.0575 169.88125 
L 606.0575 209.58 
Q 606.0575 212.38 608.8575 212.38 
z
" style="fill:#ffffff;opacity:0.8;stroke:#cccccc;stroke-linejoin:miter;"/>
    </g>
    <g id="line2d_49">
     <path d="M 611.6575 178.419062 
L 639.6575 178.419062 
" style="fill:none;stroke:#000000;stroke-linecap:square;"/>
    </g>
    <g id="line2d_50"/>
    <g id="text_27">
     <!-- strain -->
     <g transform="translate(650.8575 183.319062)scale(0.14 -0.14)">
      <use xlink:href="#DejaVuSans-115"/>
      <use x="52.099609" xlink:href="#DejaVuSans-116"/>
      <use x="91.308594" xlink:href="#DejaVuSans-114"/>
      <use x="132.421875" xlink:href="#DejaVuSans-97"/>
      <use x="193.701172" xlink:href="#DejaVuSans-105"/>
      <use x="221.484375" xlink:href="#DejaVuSans-110"/>
     </g>
    </g>
    <g id="line2d_51">
     <path d="M 611.6575 198.968437 
L 639.6575 198.968437 
" style="fill:none;stroke:#000000;stroke-dasharray:3.7,1.6;stroke-dashoffset:0;"/>
    </g>
    <g id="line2d_52"/>
    <g id="text_28">
     <!-- stress -->
     <g transform="translate(650.8575 203.868437)scale(0.14 -0.14)">
      <use xlink:href="#DejaVuSans-115"/>
      <use x="52.099609" xlink:href="#DejaVuSans-116"/>
      <use x="91.308594" xlink:href="#DejaVuSans-114"/>
      <use x="130.171875" xlink:href="#DejaVuSans-101"/>
      <use x="191.695312" xlink:href="#DejaVuSans-115"/>
      <use x="243.794922" xlink:href="#DejaVuSans-115"/>
     </g>
    </g>
   </g>
  </g>
 </g>
 <defs>
  <clipPath id="p074d1e1a7f">
   <rect height="197.26" width="271.195" x="81.245" y="22.12"/>
  </clipPath>
  <clipPath id="p60bdf7b272">
   <rect height="197.26" width="271.195" x="433.685" y="22.12"/>
  </clipPath>
 </defs>
</svg>
